# xmcd CD database file
#
# Track frame offsets:
#	150
#	36248
#	59117
#	81380
#	108300
#	130734
#	152474
#	181763
#	197099
#	221656
#	235278
#
# Disc length: 3421 seconds
#
# Revision: 0
# Processed by: cddbd v1.4PL0 Copyright (c) Steve Scherf et al.
# Submitted via: Feurio! 1.63 - http://www.feurio.com
#
DISCID=980d5b0b
DTITLE=Billy Goodmann Band - "Live at Paradiso Amsterdam"
DYEAR=1900
DGENRE=
TTITLE0=Best Friend
TTITLE1=Stop Breaking down
TTITLE2=Thick and Thin
TTITLE3=Black Peter
TTITLE4=Cowboy
TTITLE5=Goin' down the Road
TTITLE6=Ship at Sea
TTITLE7=Friend of the Devil
TTITLE8=Central Florida
TTITLE9=I gotta Woman
TTITLE10=Long Walk Home
EXTD=
EXTT0=
EXTT1=
EXTT2=
EXTT3=
EXTT4=
EXTT5=
EXTT6=
EXTT7=
EXTT8=
EXTT9=
EXTT10=
PLAYORDER=
